<svg width="85" height="85" viewBox="0 0 85 85" fill="none" xmlns="http://www.w3.org/2000/svg">
<path fill-rule="evenodd" clip-rule="evenodd" d="M9.34999 15.3C12.6361 15.3 15.3 12.6361 15.3 9.35C15.3 6.0639 12.6361 3.4 9.34999 3.4C6.06389 3.4 3.39999 6.0639 3.39999 9.35C3.39999 12.6361 6.06389 15.3 9.34999 15.3ZM50.15 36.55C53.4361 36.55 56.1 33.8861 56.1 30.6C56.1 27.3139 53.4361 24.65 50.15 24.65C46.8639 24.65 44.2 27.3139 44.2 30.6C44.2 33.8861 46.8639 36.55 50.15 36.55ZM13.6 30.6C15.0084 30.6 16.15 29.4584 16.15 28.05C16.15 26.6416 15.0084 25.5 13.6 25.5C12.1916 25.5 11.05 26.6416 11.05 28.05C11.05 29.4584 12.1916 30.6 13.6 30.6ZM67.15 56.95C68.5584 56.95 69.7 55.8084 69.7 54.4C69.7 52.9916 68.5584 51.85 67.15 51.85C65.7416 51.85 64.6 52.9916 64.6 54.4C64.6 55.8084 65.7416 56.95 67.15 56.95ZM28.9 76.5C30.3084 76.5 31.45 75.3584 31.45 73.95C31.45 72.5416 30.3084 71.4 28.9 71.4C27.4916 71.4 26.35 72.5416 26.35 73.95C26.35 75.3584 27.4916 76.5 28.9 76.5ZM76.5 11.9C77.9084 11.9 79.05 10.7584 79.05 9.35C79.05 7.94164 77.9084 6.8 76.5 6.8C75.0916 6.8 73.95 7.94164 73.95 9.35C73.95 10.7584 75.0916 11.9 76.5 11.9ZM10.2 73.1C12.0777 73.1 13.6 71.5777 13.6 69.7C13.6 67.8223 12.0777 66.3 10.2 66.3C8.32226 66.3 6.79999 67.8223 6.79999 69.7C6.79999 71.5777 8.32226 73.1 10.2 73.1ZM34 17.85C35.8777 17.85 37.4 16.3277 37.4 14.45C37.4 12.5723 35.8777 11.05 34 11.05C32.1223 11.05 30.6 12.5723 30.6 14.45C30.6 16.3277 32.1223 17.85 34 17.85ZM53.55 8.5C55.8972 8.5 57.8 6.59719 57.8 4.25C57.8 1.90281 55.8972 0 53.55 0C51.2028 0 49.3 1.90281 49.3 4.25C49.3 6.59719 51.2028 8.5 53.55 8.5ZM48.45 59.5C50.3277 59.5 51.85 57.9777 51.85 56.1C51.85 54.2223 50.3277 52.7 48.45 52.7C46.5723 52.7 45.05 54.2223 45.05 56.1C45.05 57.9777 46.5723 59.5 48.45 59.5ZM73.1 78.2C75.4472 78.2 77.35 76.2972 77.35 73.95C77.35 71.6028 75.4472 69.7 73.1 69.7C70.7528 69.7 68.85 71.6028 68.85 73.95C68.85 76.2972 70.7528 78.2 73.1 78.2ZM27.2 53.55C29.5472 53.55 31.45 51.6472 31.45 49.3C31.45 46.9528 29.5472 45.05 27.2 45.05C24.8528 45.05 22.95 46.9528 22.95 49.3C22.95 51.6472 24.8528 53.55 27.2 53.55ZM75.65 42.5C77.9972 42.5 79.9 40.5972 79.9 38.25C79.9 35.9028 77.9972 34 75.65 34C73.3028 34 71.4 35.9028 71.4 38.25C71.4 40.5972 73.3028 42.5 75.65 42.5ZM68 24.65C68.9389 24.65 69.7 23.8889 69.7 22.95C69.7 22.0111 68.9389 21.25 68 21.25C67.0611 21.25 66.3 22.0111 66.3 22.95C66.3 23.8889 67.0611 24.65 68 24.65ZM51 77.35C51.9389 77.35 52.7 76.5889 52.7 75.65C52.7 74.7111 51.9389 73.95 51 73.95C50.0611 73.95 49.3 74.7111 49.3 75.65C49.3 76.5889 50.0611 77.35 51 77.35ZM29.75 34.85C30.6889 34.85 31.45 34.0889 31.45 33.15C31.45 32.2111 30.6889 31.45 29.75 31.45C28.8111 31.45 28.05 32.2111 28.05 33.15C28.05 34.0889 28.8111 34.85 29.75 34.85ZM10.2 51C11.1389 51 11.9 50.2389 11.9 49.3C11.9 48.3611 11.1389 47.6 10.2 47.6C9.26108 47.6 8.49999 48.3611 8.49999 49.3C8.49999 50.2389 9.26108 51 10.2 51Z" fill="#FBBE7E"/>
</svg>
