<svg width="24" height="24" viewBox="0 0 24 24" fill="none" xmlns="http://www.w3.org/2000/svg">
<path d="M19 22.0004H5C4.44772 22.0004 4 21.5527 4 21.0004V11.3574C4.01549 11.1123 4.11964 10.8813 4.293 10.7074L11.293 3.70734C11.4806 3.51957 11.7351 3.41406 12.0005 3.41406C12.2659 3.41406 12.5204 3.51957 12.708 3.70734L19.708 10.7074C19.8957 10.8947 20.0009 11.1492 20 11.4144V21.0004C20 21.5527 19.5523 22.0004 19 22.0004ZM12 5.82834L6 11.8284V20.0004H18V11.8284L12 5.82834ZM12 17.9994C11.792 17.8144 11.557 17.6214 11.308 17.4174L11.261 17.3794C10.104 16.4354 8.661 15.2604 8.661 13.7994C8.66116 13.3153 8.85626 12.8517 9.20228 12.5133C9.5483 12.1748 10.0161 11.9899 10.5 12.0004C11.0722 11.9988 11.6179 12.2415 12 12.6674C12.3822 12.2416 12.9278 11.999 13.5 12.0004C13.9834 11.991 14.4503 12.1765 14.7955 12.5151C15.1407 12.8536 15.3351 13.3169 15.335 13.8004C15.335 15.2664 13.883 16.4494 12.717 17.4004L12.66 17.4474C12.423 17.6414 12.199 17.8244 11.999 18.0014L12 17.9994Z" fill="#FDDBDD"/>
</svg>
