<svg width="96" height="48" viewBox="0 0 96 48" fill="none" xmlns="http://www.w3.org/2000/svg">
<path d="M0 48C0.00908469 44.8508 0.639091 41.7344 1.85396 38.829C3.06884 35.9236 4.84473 33.2863 7.08 31.068C10.0818 28.0767 13.8164 25.926 17.9102 24.831C22.0041 23.7359 26.3136 23.7349 30.408 24.828C31.5019 28.8921 31.5079 33.1724 30.4253 37.2395C29.3427 41.3066 27.2096 45.0176 24.24 48H0ZM78.384 0.9C79.473 4.97274 79.4712 9.26035 78.3786 13.3321C77.286 17.4039 75.1411 21.1165 72.1595 24.0969C69.1778 27.0774 65.4644 29.2207 61.3921 30.3116C57.3199 31.4026 53.0323 31.4027 48.96 30.312C47.8736 26.24 47.8775 21.9539 48.9712 17.884C50.065 13.814 52.2102 10.1033 55.1914 7.12452C58.1727 4.14571 61.8851 2.00356 65.956 0.913109C70.0268 -0.177345 74.3129 -0.177727 78.384 0.912V0.9ZM0.084 0H24.204L24.108 0.084C21.1256 3.06605 17.4108 5.21044 13.3369 6.30159C9.26297 7.39273 4.97362 7.39219 0.9 6.3C0.351159 4.24521 0.0767748 2.12681 0.084 0V0ZM2.412 48H5.448L10.56 42.912V31.176C8.02371 33.1874 5.97309 35.7444 4.56043 38.657C3.14777 41.5695 2.40935 44.7629 2.4 48H2.412ZM8.868 48H20.628C23.5504 45.6867 25.8237 42.6558 27.2264 39.2027C28.6291 35.7496 29.1134 31.9919 28.632 28.296L8.88 48H8.868ZM12.984 29.496V40.5L26.928 26.592C22.164 25.992 17.232 26.952 12.984 29.496V29.496ZM52.416 28.56C55.6956 28.9863 59.0293 28.6538 62.1601 27.5882C65.2909 26.5225 68.1352 24.7522 70.4737 22.4137C72.8122 20.0752 74.5825 17.2309 75.6482 14.1001C76.7138 10.9693 77.0463 7.63559 76.62 4.356L52.416 28.56V28.56ZM61.056 5.556V16.536L74.916 2.664C70.164 2.064 65.256 3.024 61.032 5.544L61.056 5.556ZM56.868 8.82C51.948 13.74 49.896 20.448 50.712 26.856L58.644 18.936V7.224C58.032 7.716 57.444 8.244 56.868 8.82V8.82ZM20.616 0H8.904L4.368 4.536C7.24207 4.90861 10.1617 4.69903 12.9531 3.91975C15.7445 3.14047 18.3505 1.80743 20.616 0V0ZM2.496 0C2.484 0.96 2.544 1.896 2.664 2.844L5.508 0H2.484H2.496Z" fill="#FAD2D5"/>
</svg>
