<svg width="130" height="64" viewBox="0 0 130 64" fill="none" xmlns="http://www.w3.org/2000/svg">
<path d="M12.9648 30.6578C10.5428 30.6578 8.41764 30.1473 6.5893 29.1263C4.76094 28.1052 3.32437 26.6687 2.27959 24.8166C1.25856 22.9407 0.748047 20.7443 0.748047 18.2274C0.748047 15.7579 1.24669 13.5971 2.24398 11.745C3.26501 9.8929 4.7372 8.45635 6.66053 7.4353C8.58387 6.39054 10.8872 5.86814 13.5703 5.86814C14.8525 5.86814 16.0398 6.01061 17.132 6.29555C18.248 6.58048 19.2929 6.99604 20.2664 7.54215L20.4088 12.6354H19.4472L17.6663 9.03808C17.3814 8.46821 17.1083 8.05265 16.8471 7.79148C16.5859 7.5303 16.2416 7.3403 15.8142 7.2216C15.5055 7.10289 15.2087 7.03166 14.9238 7.00789C14.6388 6.96042 14.2708 6.93666 13.8196 6.93666C12.3237 6.93666 11.0059 7.32845 9.8661 8.11203C8.72634 8.87185 7.83591 10.0828 7.1948 11.745C6.57745 13.4072 6.26874 15.5679 6.26874 18.2274C6.26874 22.2403 6.92171 25.149 8.2277 26.9536C9.5574 28.7345 11.3264 29.6249 13.5347 29.6249C14.0571 29.6249 14.5082 29.5537 14.8882 29.4112C15.3393 29.34 15.648 29.1619 15.8142 28.877C15.9804 28.5683 16.0635 28.1884 16.0635 27.7372C16.0635 26.7637 16.0517 25.707 16.0279 24.5673C16.0279 23.4037 16.0279 22.3471 16.0279 21.3973C16.0279 20.4713 15.5411 19.9014 14.5676 19.6877L12.9648 19.3315V18.5835H22.7952V19.3315L22.3678 19.4384C21.9166 19.5808 21.5724 19.7945 21.3349 20.0795C21.0974 20.3407 20.9787 20.7087 20.9787 21.1836C20.9787 22.1334 20.9669 23.107 20.9431 24.1042C20.9431 25.0778 20.9431 26.0632 20.9431 27.0605V28.592C19.7084 29.2569 18.4499 29.7674 17.1677 30.1236C15.9092 30.4797 14.5082 30.6578 12.9648 30.6578ZM32.9915 12.4217C34.4875 12.4217 35.7697 12.7304 36.8382 13.3478C37.9067 13.9651 38.7259 14.82 39.2958 15.9122C39.8894 16.9808 40.1862 18.2155 40.1862 19.6164C40.1862 19.9252 40.1744 20.2219 40.1506 20.5069C40.1269 20.7681 40.0794 21.0174 40.0082 21.2548H29.2873C29.3111 23.7006 29.7622 25.4577 30.6408 26.5262C31.5431 27.5947 32.8491 28.129 34.5587 28.129C35.7459 28.129 36.7076 27.9391 37.4437 27.5591C38.1798 27.1555 38.8565 26.5975 39.4739 25.8851L40.0438 26.4194C39.3314 27.7254 38.3579 28.7464 37.1231 29.4825C35.9122 30.1948 34.4637 30.551 32.7778 30.551C31.0919 30.551 29.6079 30.1948 28.3256 29.4825C27.0434 28.7701 26.0343 27.7491 25.2982 26.4194C24.5858 25.0659 24.2296 23.4513 24.2296 21.5754C24.2296 19.6283 24.6452 17.978 25.4763 16.6246C26.3311 15.2711 27.4234 14.2382 28.7531 13.5259C30.1065 12.7898 31.5194 12.4217 32.9915 12.4217ZM32.8134 13.4546C32.1249 13.4546 31.5194 13.6565 30.997 14.0601C30.4983 14.4401 30.0947 15.1287 29.786 16.1259C29.501 17.0995 29.3348 18.4767 29.2873 20.2576H35.6628C35.924 17.8593 35.8291 16.1259 35.3779 15.0574C34.9267 13.9889 34.0719 13.4546 32.8134 13.4546ZM50.9046 30.551C49.1475 30.551 47.604 30.183 46.2743 29.4468C44.9683 28.7107 43.9473 27.666 43.2112 26.3125C42.4989 24.9591 42.1427 23.3444 42.1427 21.4686C42.1427 19.5927 42.5226 17.978 43.2824 16.6246C44.066 15.2711 45.1108 14.2382 46.4168 13.5259C47.7465 12.7898 49.2424 12.4217 50.9046 12.4217C52.5667 12.4217 54.0508 12.7898 55.3567 13.5259C56.6863 14.2382 57.7314 15.2711 58.4911 16.6246C59.2747 17.9543 59.6664 19.569 59.6664 21.4686C59.6664 23.3444 59.2986 24.9709 58.5623 26.3481C57.85 27.7016 56.841 28.7464 55.5348 29.4825C54.2288 30.1948 52.6854 30.551 50.9046 30.551ZM50.9046 29.5537C51.7594 29.5537 52.448 29.3281 52.9704 28.877C53.5165 28.4021 53.9083 27.5829 54.1458 26.4194C54.3832 25.2558 54.5019 23.6294 54.5019 21.5398C54.5019 19.4265 54.3832 17.7881 54.1458 16.6246C53.9083 15.4374 53.5165 14.6182 52.9704 14.167C52.448 13.6921 51.7594 13.4546 50.9046 13.4546C50.0498 13.4546 49.3612 13.6921 48.8388 14.167C48.3164 14.6182 47.9246 15.4374 47.6634 16.6246C47.4259 17.7881 47.3072 19.4265 47.3072 21.5398C47.3072 23.6294 47.4259 25.2558 47.6634 26.4194C47.9246 27.5829 48.3164 28.4021 48.8388 28.877C49.3612 29.3281 50.0498 29.5537 50.9046 29.5537ZM61.3048 30.0523V29.3756L61.8391 29.1975C62.3138 29.0788 62.6344 28.877 62.8008 28.592C62.9906 28.3071 63.0857 27.9272 63.0857 27.4523V17.0164C63.0618 16.494 62.9666 16.1022 62.8008 15.841C62.6344 15.5561 62.3138 15.3661 61.8391 15.2711L61.3048 15.1287V14.4875L67.1105 12.4217L67.5379 12.8135L67.8584 15.9479V16.1972C68.2146 15.5323 68.6654 14.915 69.2119 14.3451C69.7579 13.7752 70.3517 13.3122 70.9928 12.956C71.6339 12.5998 72.275 12.4217 72.9161 12.4217C73.8182 12.4217 74.495 12.6592 74.9463 13.1341C75.3971 13.609 75.623 14.2145 75.623 14.9506C75.623 15.7579 75.3971 16.3753 74.9463 16.8027C74.495 17.2063 73.949 17.4082 73.3079 17.4082C72.3579 17.4082 71.5387 16.9808 70.8503 16.1259L70.7791 16.0547C70.5414 15.7698 70.2682 15.6154 69.9593 15.5917C69.6749 15.5442 69.39 15.6867 69.1051 16.0191C68.8674 16.2566 68.642 16.5415 68.4283 16.8739C68.238 17.1826 68.0599 17.5506 67.8941 17.978V27.3098C67.8941 27.761 67.9887 28.1409 68.179 28.4496C68.3688 28.7345 68.6893 28.9363 69.1407 29.0551L70.2092 29.3756V30.0523H61.3048ZM83.9547 23.9618C82.3876 23.9618 81.0458 23.7006 79.93 23.1782V24.4604C79.93 25.1728 80.2861 25.6002 80.9985 25.7426L87.3384 26.918C88.5494 27.1555 89.6179 27.4523 90.544 27.8084C91.47 28.1409 92.194 28.6276 92.7166 29.2688C93.2386 29.8861 93.4996 30.7291 93.4996 31.7976C93.4996 32.9374 93.1201 33.994 92.3604 34.9675C91.6242 35.9648 90.52 36.7603 89.048 37.3539C87.5994 37.9713 85.7829 38.28 83.5986 38.28C81.7225 38.28 80.2266 38.0781 79.1108 37.6745C78.0183 37.2945 77.2347 36.7959 76.76 36.1785C76.2847 35.5612 76.0477 34.8963 76.0477 34.184C76.0477 33.3291 76.3326 32.4743 76.9025 31.6195C77.4957 30.7647 78.2559 30.0523 79.182 29.4825C77.7334 28.9364 77.0093 28.0696 77.0093 26.8824C77.0093 26.4312 77.1162 26.0157 77.3299 25.6358C77.5436 25.2558 77.8046 24.876 78.1135 24.496L79.3957 22.8932C77.6861 21.896 76.8313 20.3406 76.8313 18.2274C76.8313 16.494 77.4368 15.093 78.6477 14.0245C79.8821 12.956 81.6513 12.4217 83.9547 12.4217C86.2576 12.4217 88.0385 12.956 89.2973 14.0245C90.057 13.9058 90.7693 13.7158 91.4344 13.4546C92.0989 13.1935 92.7166 12.8373 93.2865 12.3861L93.7851 12.7423V14.7369H89.9385C90.6981 15.6867 91.0782 16.8501 91.0782 18.2274C91.0782 19.9132 90.4605 21.2905 89.2261 22.359C88.0151 23.4275 86.2576 23.9618 83.9547 23.9618ZM83.8835 23.0001C84.8808 23.0001 85.6048 22.6202 86.0562 21.8603C86.5309 21.0768 86.7685 19.8302 86.7685 18.1205C86.7685 16.4346 86.5426 15.2237 86.0918 14.4875C85.6404 13.7514 84.9398 13.3834 83.9903 13.3834C83.0404 13.3834 82.328 13.7633 81.8533 14.5232C81.402 15.2593 81.1766 16.4821 81.1766 18.1918C81.1766 19.9014 81.3903 21.1361 81.8177 21.896C82.2451 22.6321 82.9335 23.0001 83.8835 23.0001ZM78.8258 33.1511C78.8258 34.457 79.241 35.4306 80.0724 36.0717C80.9033 36.7366 82.2212 37.069 84.026 37.069C86.0205 37.069 87.4925 36.7366 88.4425 36.0717C89.4159 35.4306 89.9028 34.5758 89.9028 33.5072C89.9028 32.8424 89.6535 32.32 89.1549 31.9401C88.6796 31.5601 87.8727 31.2633 86.7329 31.0496L80.3574 29.803C80.2622 29.7793 80.167 29.7555 80.0724 29.7318C79.7163 30.2067 79.4191 30.7528 79.182 31.3702C78.9444 31.9875 78.8258 32.5812 78.8258 33.1511ZM99.1756 10.4628C98.392 10.4628 97.727 10.2135 97.181 9.71481C96.6345 9.21617 96.3618 8.58691 96.3618 7.82709C96.3618 7.04351 96.6345 6.41425 97.181 5.93937C97.727 5.44073 98.392 5.19141 99.1756 5.19141C99.9592 5.19141 100.624 5.44073 101.17 5.93937C101.716 6.41425 101.989 7.04351 101.989 7.82709C101.989 8.58691 101.716 9.21617 101.17 9.71481C100.624 10.2135 99.9592 10.4628 99.1756 10.4628ZM95.0796 30.0523V29.3756L95.6139 29.2331C96.0886 29.0907 96.4091 28.877 96.5755 28.592C96.7414 28.3071 96.8365 27.9272 96.8605 27.4523V20.8987C96.8605 20.1626 96.8605 19.4858 96.8605 18.8685C96.8605 18.2274 96.8482 17.5744 96.8249 16.9095C96.8249 16.4346 96.7297 16.0666 96.5399 15.8054C96.3735 15.5204 96.053 15.3305 95.5782 15.2355L95.0796 15.1287V14.4875L101.313 12.4217L101.74 12.8135L101.633 17.8712V27.4879C101.633 27.9628 101.716 28.3427 101.883 28.6276C102.072 28.9126 102.393 29.1263 102.844 29.2688L103.236 29.3756V30.0523H95.0796ZM113.722 12.4217C115.218 12.4217 116.5 12.7304 117.569 13.3478C118.637 13.9651 119.456 14.82 120.026 15.9122C120.62 16.9808 120.917 18.2155 120.917 19.6164C120.917 19.9252 120.905 20.2219 120.881 20.5069C120.857 20.7681 120.81 21.0174 120.739 21.2548H110.018C110.042 23.7006 110.492 25.4577 111.371 26.5262C112.273 27.5947 113.58 28.129 115.289 28.129C116.476 28.129 117.438 27.9391 118.174 27.5591C118.91 27.1555 119.587 26.5975 120.204 25.8851L120.774 26.4194C120.062 27.7254 119.089 28.7464 117.854 29.4825C116.643 30.1948 115.194 30.551 113.508 30.551C111.823 30.551 110.338 30.1948 109.056 29.4825C107.774 28.7701 106.765 27.7491 106.029 26.4194C105.316 25.0659 104.96 23.4513 104.96 21.5754C104.96 19.6283 105.376 17.978 106.207 16.6246C107.062 15.2711 108.154 14.2382 109.483 13.5259C110.837 12.7898 112.25 12.4217 113.722 12.4217ZM113.544 13.4546C112.855 13.4546 112.25 13.6565 111.727 14.0601C111.229 14.4401 110.825 15.1287 110.516 16.1259C110.231 17.0995 110.065 18.4767 110.018 20.2576H116.393C116.654 17.8593 116.56 16.1259 116.108 15.0574C115.657 13.9889 114.802 13.4546 113.544 13.4546Z" fill="#FDDBDD"/>
<path d="M25.4798 59.0405C24.34 59.0405 23.4733 58.8268 22.8797 58.3994C22.2861 57.972 21.9893 57.3905 21.9893 56.6542C21.9893 56.0131 22.203 55.5144 22.6304 55.1583C23.0815 54.8021 23.6039 54.624 24.1975 54.624C24.8149 54.624 25.3491 54.7546 25.8003 55.0158C26.2752 55.277 26.7264 55.7164 27.1538 56.3336L27.6168 57.1528C27.783 57.3192 27.973 57.3905 28.1867 57.3665C28.4004 57.3426 28.5547 57.2124 28.6497 56.9747C28.7922 56.5 28.8872 55.8589 28.9346 55.0514C29.0059 54.2203 29.0415 53.2231 29.0415 52.0595C29.0415 50.6348 29.0059 48.7827 28.9346 46.5032C28.8872 44.2237 28.8278 41.3031 28.7566 37.7413C28.7328 37.2427 28.6259 36.8391 28.436 36.5304C28.2698 36.2217 27.973 35.9961 27.5456 35.8536L26.762 35.6399V34.892H35.8444V35.6399L35.0965 35.8536C34.6453 35.9961 34.3366 36.2098 34.1704 36.4947C34.0279 36.7797 33.9567 37.1596 33.9567 37.6345V44.6155C33.9567 46.9188 33.8617 48.8065 33.6718 50.2787C33.4818 51.7508 33.1613 53.0212 32.7101 54.0897C32.1165 55.7042 31.1548 56.9391 29.8251 57.7939C28.5191 58.6248 27.0707 59.0405 25.4798 59.0405ZM45.4088 58.9337C43.6517 58.9337 42.1082 58.5658 40.7785 57.8296C39.4726 57.0933 38.4516 56.0487 37.7154 54.6952C37.0031 53.3418 36.6469 51.7271 36.6469 49.8513C36.6469 47.9754 37.0269 46.3608 37.7867 45.0073C38.5703 43.6538 39.615 42.6209 40.921 41.9086C42.2507 41.1725 43.7466 40.8044 45.4088 40.8044C47.071 40.8044 48.555 41.1725 49.861 41.9086C51.1907 42.6209 52.2355 43.6538 52.9953 45.0073C53.7789 46.337 54.1707 47.9517 54.1707 49.8513C54.1707 51.7271 53.8027 53.3536 53.0665 54.7308C52.3542 56.0843 51.3451 57.1289 50.0391 57.8652C48.7331 58.5775 47.1897 58.9337 45.4088 58.9337ZM45.4088 57.9364C46.2636 57.9364 46.9522 57.711 47.4746 57.2597C48.0207 56.785 48.4125 55.9658 48.65 54.8021C48.8875 53.6386 49.0062 52.0121 49.0062 49.9225C49.0062 47.8092 48.8875 46.1708 48.65 45.0073C48.4125 43.8201 48.0207 43.0009 47.4746 42.5497C46.9522 42.0748 46.2636 41.8373 45.4088 41.8373C44.554 41.8373 43.8654 42.0748 43.343 42.5497C42.8206 43.0009 42.4288 43.8201 42.1676 45.0073C41.9302 46.1708 41.8114 47.8092 41.8114 49.9225C41.8114 52.0121 41.9302 53.6386 42.1676 54.8021C42.4288 55.9658 42.8206 56.785 43.343 57.2597C43.8654 57.711 44.554 57.9364 45.4088 57.9364ZM55.8091 58.4351V57.7583L56.3433 57.5802C56.8181 57.4617 57.1386 57.2597 57.305 56.9747C57.4948 56.6898 57.59 56.3097 57.59 55.835V45.3991C57.566 44.8767 57.4709 44.4849 57.305 44.2237C57.1386 43.9388 56.8181 43.7488 56.3433 43.6538L55.8091 43.5114V42.8702L61.6147 40.8044L62.0421 41.1962L62.3627 44.3306V44.5799C62.7189 43.915 63.1696 43.2977 63.7161 42.7278C64.2621 42.1579 64.8559 41.6949 65.497 41.3387C66.1381 40.9825 66.7792 40.8044 67.4204 40.8044C68.3225 40.8044 68.9992 41.0419 69.4505 41.5168C69.9013 41.9917 70.1273 42.5972 70.1273 43.3333C70.1273 44.1406 69.9013 44.758 69.4505 45.1854C68.9992 45.589 68.4533 45.7909 67.8121 45.7909C66.8622 45.7909 66.043 45.3635 65.3545 44.5086L65.2833 44.4374C65.0457 44.1525 64.7724 43.9982 64.4636 43.9744C64.1792 43.9269 63.8942 44.0694 63.6093 44.4018C63.3717 44.6393 63.1463 44.9242 62.9326 45.2566C62.7422 45.5653 62.5641 45.9333 62.3983 46.3608V55.6925C62.3983 56.1439 62.4929 56.5234 62.6832 56.8323C62.873 57.1172 63.1936 57.3192 63.6449 57.4378L64.7134 57.7583V58.4351H55.8091ZM78.2453 58.9337C76.8439 58.9337 75.5856 58.6248 74.4693 58.0076C73.3534 57.3665 72.4752 56.3932 71.8341 55.087C71.2164 53.7573 70.9081 52.0714 70.9081 50.0293C70.9081 47.9873 71.2642 46.2895 71.9766 44.9361C72.6889 43.5588 73.6384 42.5259 74.826 41.8373C76.0131 41.1488 77.3192 40.8044 78.7439 40.8044C79.5987 40.8044 80.4179 40.9113 81.2015 41.125C81.9851 41.3149 82.6735 41.6118 83.2673 42.0154V37.3852C83.2673 36.8865 83.1838 36.5304 83.018 36.3166C82.8755 36.0792 82.5667 35.9011 82.0919 35.7824L81.3796 35.6399V34.9632L87.577 33.4316L88.04 33.7522L87.8976 38.7742V55.9062C87.8976 56.3576 87.9805 56.7371 88.1469 57.046C88.3127 57.3309 88.6099 57.5329 89.0373 57.6515L89.4291 57.7583V58.4351L83.5166 58.8268L83.1961 57.3309C82.555 57.8296 81.8187 58.2213 80.9878 58.5063C80.1564 58.7912 79.2425 58.9337 78.2453 58.9337ZM80.2042 57.2953C81.2249 57.2953 82.1865 56.9631 83.0892 56.298V43.0483C82.2105 42.5022 81.2605 42.2291 80.2398 42.2291C79.0761 42.2291 78.0789 42.8465 77.248 44.0812C76.4165 45.2922 76.0014 47.2512 76.0014 49.9581C76.0014 52.665 76.3932 54.5646 77.1767 55.6569C77.9603 56.7493 78.9693 57.2953 80.2042 57.2953ZM95.8603 58.9337C94.5068 58.9337 93.3554 58.5536 92.4054 57.7939C91.4793 57.0104 91.0163 55.8945 91.0163 54.4459C91.0163 53.3061 91.5623 52.2614 92.6547 51.3116C93.7705 50.338 95.5158 49.6257 97.8905 49.1745C98.294 49.0795 98.757 48.9964 99.2796 48.9252C99.8255 48.8302 100.36 48.7353 100.882 48.6403V46.1114C100.882 44.4968 100.68 43.3807 100.277 42.7634C99.8734 42.146 99.2323 41.8373 98.3535 41.8373H98.2467C97.7007 41.8373 97.2611 42.0154 96.9288 42.3716C96.6199 42.704 96.4185 43.262 96.3233 44.0456L96.2165 44.5086C96.1452 45.4585 95.8959 46.1589 95.4685 46.6101C95.0411 47.0375 94.5068 47.2512 93.8657 47.2512C93.2719 47.2512 92.7733 47.0731 92.3698 46.7169C91.9897 46.337 91.7999 45.8503 91.7999 45.2566C91.7999 44.2831 92.1321 43.4639 92.7972 42.799C93.4622 42.1341 94.3404 41.6355 95.4329 41.3031C96.5487 40.9707 97.748 40.8044 99.0302 40.8044C101.143 40.8044 102.758 41.3149 103.874 42.336C104.99 43.357 105.548 45.0191 105.548 47.3224V55.2651C105.548 56.2863 106.035 56.7967 107.009 56.7967H107.828L108.184 57.1884C107.757 57.7344 107.282 58.1501 106.759 58.4351C106.237 58.7439 105.524 58.8981 104.622 58.8981C103.601 58.8981 102.782 58.6604 102.165 58.1857C101.571 57.6871 101.179 57.0343 100.989 56.2268C100.23 57.0343 99.4816 57.6871 98.7453 58.1857C98.009 58.6844 97.0473 58.9337 95.8603 58.9337ZM97.9261 56.6542C98.4008 56.6542 98.8522 56.5473 99.2796 56.3336C99.707 56.1199 100.241 55.7637 100.882 55.2651V49.5663C100.265 49.6613 99.6357 49.78 98.9946 49.9225C97.9734 50.16 97.1425 50.5992 96.5014 51.2403C95.8842 51.8815 95.5754 52.7481 95.5754 53.8404C95.5754 54.7902 95.7891 55.5026 96.2165 55.9775C96.6678 56.4288 97.2377 56.6542 97.9261 56.6542ZM108.887 58.4351V57.7583L109.457 57.6159C110.241 57.3782 110.633 56.7967 110.633 55.8706V45.3635C110.609 44.8648 110.526 44.4849 110.383 44.2237C110.241 43.9388 109.932 43.7488 109.457 43.6538L108.887 43.5114V42.8702L114.657 40.8044L115.085 41.1962L115.334 43.4045C116.189 42.6447 117.138 42.0273 118.183 41.5524C119.252 41.0538 120.297 40.8044 121.318 40.8044C122.885 40.8044 124.084 41.2319 124.915 42.0867C125.77 42.9415 126.197 44.2475 126.197 46.0046V55.9062C126.197 56.8323 126.625 57.4138 127.48 57.6515L127.871 57.7583V58.4351H119.679V57.7583L120.214 57.6159C120.997 57.3548 121.389 56.7727 121.389 55.8706V45.2922C121.389 44.4612 121.211 43.8557 120.855 43.4757C120.499 43.0958 119.905 42.9059 119.074 42.9059C117.91 42.9059 116.699 43.4164 115.441 44.4374V55.9062C115.441 56.8323 115.856 57.4138 116.688 57.6515L117.043 57.7583V58.4351H108.887Z" fill="#FDDBDD"/>
<path d="M21.415 43.6753C21.4447 43.8238 21.4596 43.9425 21.4596 44.0315C21.4596 44.3283 21.3854 44.6252 21.237 44.922C21.1034 45.2187 20.9104 45.4933 20.6582 45.7456C20.4059 45.9979 20.1091 46.2205 19.7677 46.4134C19.4264 46.5915 19.048 46.7102 18.6324 46.7696C18.6176 47.6749 18.4617 48.5208 18.165 49.3073C17.883 50.0939 17.4823 50.784 16.9629 51.3776C16.4435 51.9564 15.8053 52.4165 15.0484 52.7578C14.3064 53.0991 13.4679 53.2698 12.533 53.2698C11.687 53.2698 10.945 53.1362 10.3069 52.8691C9.68356 52.5871 9.1567 52.2161 8.72635 51.756C8.31079 51.296 7.99914 50.7692 7.79139 50.1755C7.58364 49.5819 7.47974 48.9734 7.47974 48.3501C7.47974 47.8455 7.53912 47.341 7.65782 46.8364C7.79139 46.317 7.98433 45.842 8.23661 45.4117C8.48888 44.9665 8.80053 44.588 9.17156 44.2764C9.5574 43.9499 10.0026 43.7199 10.5072 43.5863C9.79487 43.1411 9.27547 42.6291 8.94895 42.0503C8.6373 41.4715 8.48148 40.8556 8.48148 40.2026C8.48148 39.698 8.57052 39.2009 8.74861 38.7112C8.92669 38.2214 9.18642 37.7911 9.52774 37.42C9.88391 37.0342 10.3069 36.7225 10.7966 36.4851C11.2863 36.2476 11.8429 36.1289 12.4662 36.1289C13.1489 36.1289 13.7276 36.218 14.2025 36.396C14.6774 36.5741 15.0633 36.8041 15.3601 37.0861C15.6569 37.3681 15.8721 37.6872 16.0057 38.0433C16.1392 38.3995 16.206 38.7557 16.206 39.1119C16.206 39.3641 16.1763 39.6165 16.117 39.8687C16.0724 40.1062 15.9982 40.3214 15.8943 40.5143C15.7904 40.7072 15.6643 40.8631 15.5159 40.9818C15.3675 41.0857 15.1969 41.1376 15.0039 41.1376C14.8407 41.1376 14.6774 41.1079 14.5142 41.0486C14.3509 40.9744 14.1729 40.8334 13.9799 40.6256C14.1877 40.5069 14.3361 40.3065 14.4251 40.0246C14.5142 39.7278 14.5587 39.4161 14.5587 39.0896C14.5587 38.7334 14.5068 38.444 14.4029 38.2214C14.299 37.984 14.1654 37.8059 14.0022 37.6872C13.8537 37.5685 13.6831 37.4868 13.4902 37.4423C13.3121 37.3978 13.134 37.3755 12.9559 37.3755C12.6888 37.3755 12.4513 37.4497 12.2436 37.5981C12.0358 37.7317 11.8577 37.9172 11.7093 38.1546C11.5609 38.3921 11.4496 38.6666 11.3754 38.9783C11.3012 39.2751 11.2641 39.5867 11.2641 39.9133C11.2641 40.2991 11.3235 40.685 11.4422 41.0708C11.5609 41.4419 11.739 41.7906 11.9764 42.1171C12.2139 42.4436 12.5181 42.733 12.8891 42.9853C13.2602 43.2375 13.7054 43.4305 14.2248 43.564C13.7499 43.6827 13.3269 43.898 12.9559 44.2096C12.5849 44.5064 12.2732 44.87 12.021 45.3004C11.7835 45.7159 11.598 46.1686 11.4644 46.6583C11.3457 47.148 11.2863 47.6229 11.2863 48.083C11.2863 48.4837 11.3383 48.8695 11.4422 49.2406C11.5461 49.6116 11.7019 49.938 11.9096 50.22C12.1323 50.502 12.4142 50.7246 12.7556 50.8879C13.0969 51.0511 13.505 51.1327 13.9799 51.1327C15.2265 51.1327 16.1466 50.784 16.7403 50.0865C17.3487 49.3741 17.7197 48.2833 17.8533 46.8141C17.5417 46.7993 17.2374 46.777 16.9406 46.7473C16.6438 46.7028 16.3544 46.6806 16.0724 46.6806C15.093 46.6806 14.4697 47.0145 14.2025 47.6823L14.0467 47.66C14.0764 46.7399 14.3955 45.9905 15.0039 45.4117C15.6272 44.818 16.5176 44.5213 17.6752 44.5213C17.9869 44.5213 18.2763 44.5435 18.5434 44.588C18.8254 44.6177 19.1073 44.6326 19.3893 44.6326C19.8049 44.6326 20.1907 44.5584 20.5469 44.41C20.9179 44.2615 21.1628 44.0167 21.2815 43.6753H21.415Z" fill="white"/>
</svg>
